<?xml version="1.0" encoding="utf-8"?><svg width="auto" height="3420" style="overflow:visible " version="1.1" xmlns="http://www.w3.org/2000/svg"><rect x="20" y="20" width="200" height="40" style="fill:white;stroke:black;stroke-width:1" /><text x="30" y="30" font-size="10" style="fill:blue">rutas</text><rect x="240" y="20" width="200" height="40" style="fill:white;stroke:black;stroke-width:1" /><text x="250" y="30" font-size="10" style="fill:blue">ruta</text><path d="M220 40 C240 40 220 40 240 40" style="fill:transparent;stroke:black" /><text x="250" y="40" font-size="8" style="fill:black">nombre: Tanji River Paddle</text><rect x="460" y="20" width="200" height="40" style="fill:white;stroke:black;stroke-width:1" /><text x="470" y="30" font-size="10" style="fill:blue">tipo</text><path d="M440 40 C460 40 440 40 460 40" style="fill:transparent;stroke:black" /><rect x="526" y="20" width="137" height="40" style="fill:green;stroke:black;stroke-width:1" /><text x="536" y="30" font-size="8" style="fill:white">Senderismo</text><rect x="460" y="70" width="200" height="40" style="fill:white;stroke:black;stroke-width:1" /><text x="470" y="80" font-size="10" style="fill:blue">medio_transporte</text><path d="M440 40 C460 40 440 90 460 90" style="fill:transparent;stroke:black" /><rect x="526" y="70" width="137" height="40" style="fill:green;stroke:black;stroke-width:1" /><text x="536" y="80" font-size="8" style="fill:white">Canoa</text><rect x="460" y="120" width="200" height="40" style="fill:white;stroke:black;stroke-width:1" /><text x="470" y="130" font-size="10" style="fill:blue">duracion</text><path d="M440 40 C460 40 440 140 460 140" style="fill:transparent;stroke:black" /><rect x="526" y="120" width="137" height="40" style="fill:green;stroke:black;stroke-width:1" /><text x="536" y="130" font-size="8" style="fill:white">4 horas</text><rect x="460" y="170" width="200" height="40" style="fill:white;stroke:black;stroke-width:1" /><text x="470" y="180" font-size="10" style="fill:blue">agencia</text><path d="M440 40 C460 40 440 190 460 190" style="fill:transparent;stroke:black" /><rect x="526" y="170" width="137" height="40" style="fill:green;stroke:black;stroke-width:1" /><text x="536" y="180" font-size="8" style="fill:white">Trekking Hiking</text><rect x="460" y="220" width="200" height="40" style="fill:white;stroke:black;stroke-width:1" /><text x="470" y="230" font-size="10" style="fill:blue">descripcion</text><path d="M440 40 C460 40 440 240 460 240" style="fill:transparent;stroke:black" /><rect x="526" y="220" width="137" height="40" style="fill:green;stroke:black;stroke-width:1" /><text x="536" y="230" font-size="8" style="fill:white"> Explora esta ruta de ida y vuelta de 7,2-km cerca de Tujering, West Coast. Un
            corto viaje en canoa por un pequeño río que desemboca en el mar en Tanji.</text><rect x="460" y="270" width="200" height="40" style="fill:white;stroke:black;stroke-width:1" /><text x="470" y="280" font-size="10" style="fill:blue">personas_adecuadas</text><path d="M440 40 C460 40 440 290 460 290" style="fill:transparent;stroke:black" /><rect x="526" y="270" width="137" height="40" style="fill:green;stroke:black;stroke-width:1" /><text x="536" y="280" font-size="8" style="fill:white"> Personas en buena forma física</text><rect x="460" y="320" width="200" height="40" style="fill:white;stroke:black;stroke-width:1" /><text x="470" y="330" font-size="10" style="fill:blue">inicio_ruta</text><path d="M440 40 C460 40 440 340 460 340" style="fill:transparent;stroke:black" /><rect x="680" y="320" width="200" height="40" style="fill:white;stroke:black;stroke-width:1" /><text x="690" y="330" font-size="10" style="fill:blue">campo</text><path d="M660 340 C680 340 660 340 680 340" style="fill:transparent;stroke:black" /><text x="690" y="340" font-size="8" style="fill:black">nombre: Lugar de inicio</text><rect x="746" y="320" width="137" height="40" style="fill:green;stroke:black;stroke-width:1" /><text x="756" y="330" font-size="8" style="fill:white">Tujering, West Coast</text><rect x="680" y="370" width="200" height="40" style="fill:white;stroke:black;stroke-width:1" /><text x="690" y="380" font-size="10" style="fill:blue">campo</text><path d="M660 340 C680 340 660 390 680 390" style="fill:transparent;stroke:black" /><text x="690" y="390" font-size="8" style="fill:black">nombre: Dirección de incio</text><rect x="746" y="370" width="137" height="40" style="fill:green;stroke:black;stroke-width:1" /><text x="756" y="380" font-size="8" style="fill:white">Hacia la montaña por el río</text><rect x="680" y="420" width="200" height="40" style="fill:white;stroke:black;stroke-width:1" /><text x="690" y="430" font-size="10" style="fill:blue">campo</text><path d="M660 340 C680 340 660 440 680 440" style="fill:transparent;stroke:black" /><text x="690" y="440" font-size="8" style="fill:black">nombre: Coordenadas inicio</text><rect x="746" y="420" width="137" height="40" style="fill:green;stroke:black;stroke-width:1" /><text x="756" y="430" font-size="8" style="fill:white">13°22'10.8"N 16°47'35.3"W 8m</text><rect x="460" y="520" width="200" height="40" style="fill:white;stroke:black;stroke-width:1" /><text x="470" y="530" font-size="10" style="fill:blue">referencias</text><path d="M440 40 C460 40 440 540 460 540" style="fill:transparent;stroke:black" /><rect x="680" y="520" width="200" height="40" style="fill:white;stroke:black;stroke-width:1" /><text x="690" y="530" font-size="10" style="fill:blue">referencia</text><path d="M660 540 C680 540 660 540 680 540" style="fill:transparent;stroke:black" /><rect x="746" y="520" width="137" height="40" style="fill:green;stroke:black;stroke-width:1" /><text x="756" y="530" font-size="8" style="fill:white">
                https://es.wikiloc.com/rutas-senderismo/tanji-river-paddle-facil-tujering-west-coast-gambia-145371314
                </text><rect x="680" y="570" width="200" height="40" style="fill:white;stroke:black;stroke-width:1" /><text x="690" y="580" font-size="10" style="fill:blue">referencia</text><path d="M660 540 C680 540 660 590 680 590" style="fill:transparent;stroke:black" /><rect x="746" y="570" width="137" height="40" style="fill:green;stroke:black;stroke-width:1" /><text x="756" y="580" font-size="8" style="fill:white"> https://www.alltrails.com/es/ruta/the-gambia/west-coast/tanji-river-paddle </text><rect x="680" y="620" width="200" height="40" style="fill:white;stroke:black;stroke-width:1" /><text x="690" y="630" font-size="10" style="fill:blue">referencia</text><path d="M660 540 C680 540 660 640 680 640" style="fill:transparent;stroke:black" /><rect x="746" y="620" width="137" height="40" style="fill:green;stroke:black;stroke-width:1" /><text x="756" y="630" font-size="8" style="fill:white">
                https://www.tripadvisor.es/Attraction_Review-g3675810-d17473776-Reviews-Gambia_Kayaking-Tanji_West_Coast_Division.html
                </text><rect x="460" y="720" width="200" height="40" style="fill:white;stroke:black;stroke-width:1" /><text x="470" y="730" font-size="10" style="fill:blue">recomendacion</text><path d="M440 40 C460 40 440 740 460 740" style="fill:transparent;stroke:black" /><rect x="526" y="720" width="137" height="40" style="fill:green;stroke:black;stroke-width:1" /><text x="536" y="730" font-size="8" style="fill:white">7/10</text><rect x="460" y="770" width="200" height="40" style="fill:white;stroke:black;stroke-width:1" /><text x="470" y="780" font-size="10" style="fill:blue">hitos</text><path d="M440 40 C460 40 440 790 460 790" style="fill:transparent;stroke:black" /><rect x="680" y="770" width="200" height="40" style="fill:white;stroke:black;stroke-width:1" /><text x="690" y="780" font-size="10" style="fill:blue">hito</text><path d="M660 790 C680 790 660 790 680 790" style="fill:transparent;stroke:black" /><rect x="900" y="770" width="200" height="40" style="fill:white;stroke:black;stroke-width:1" /><text x="910" y="780" font-size="10" style="fill:blue">campo</text><path d="M880 790 C900 790 880 790 900 790" style="fill:transparent;stroke:black" /><text x="910" y="790" font-size="8" style="fill:black">nombre: Nombre del hito</text><rect x="966" y="770" width="137" height="40" style="fill:green;stroke:black;stroke-width:1" /><text x="976" y="780" font-size="8" style="fill:white">Tanji Statue</text><rect x="900" y="820" width="200" height="40" style="fill:white;stroke:black;stroke-width:1" /><text x="910" y="830" font-size="10" style="fill:blue">campo</text><path d="M880 790 C900 790 880 840 900 840" style="fill:transparent;stroke:black" /><text x="910" y="840" font-size="8" style="fill:black">nombre: Descripcion del hito</text><rect x="966" y="820" width="137" height="40" style="fill:green;stroke:black;stroke-width:1" /><text x="976" y="830" font-size="8" style="fill:white">Estatua que representa las aldeas antiguas que
                    habitaban alrededor del río Tanji</text><rect x="900" y="870" width="200" height="40" style="fill:white;stroke:black;stroke-width:1" /><text x="910" y="880" font-size="10" style="fill:blue">campo</text><path d="M880 790 C900 790 880 890 900 890" style="fill:transparent;stroke:black" /><text x="910" y="890" font-size="8" style="fill:black">nombre: Coordenadas del hito</text><rect x="966" y="870" width="137" height="40" style="fill:green;stroke:black;stroke-width:1" /><text x="976" y="880" font-size="8" style="fill:white">13°21'51.1"N 16°47'16.0"W</text><rect x="240" y="1070" width="200" height="40" style="fill:white;stroke:black;stroke-width:1" /><text x="250" y="1080" font-size="10" style="fill:blue">ruta</text><path d="M220 40 C240 40 220 1090 240 1090" style="fill:transparent;stroke:black" /><text x="250" y="1090" font-size="8" style="fill:black">nombre: Kartong</text><rect x="460" y="1070" width="200" height="40" style="fill:white;stroke:black;stroke-width:1" /><text x="470" y="1080" font-size="10" style="fill:blue">tipo</text><path d="M440 1090 C460 1090 440 1090 460 1090" style="fill:transparent;stroke:black" /><rect x="526" y="1070" width="137" height="40" style="fill:green;stroke:black;stroke-width:1" /><text x="536" y="1080" font-size="8" style="fill:white">Paisajística</text><rect x="460" y="1120" width="200" height="40" style="fill:white;stroke:black;stroke-width:1" /><text x="470" y="1130" font-size="10" style="fill:blue">medio_transporte</text><path d="M440 1090 C460 1090 440 1140 460 1140" style="fill:transparent;stroke:black" /><rect x="526" y="1120" width="137" height="40" style="fill:green;stroke:black;stroke-width:1" /><text x="536" y="1130" font-size="8" style="fill:white">A pie</text><rect x="460" y="1170" width="200" height="40" style="fill:white;stroke:black;stroke-width:1" /><text x="470" y="1180" font-size="10" style="fill:blue">duracion</text><path d="M440 1090 C460 1090 440 1190 460 1190" style="fill:transparent;stroke:black" /><rect x="526" y="1170" width="137" height="40" style="fill:green;stroke:black;stroke-width:1" /><text x="536" y="1180" font-size="8" style="fill:white">2 horas y media</text><rect x="460" y="1220" width="200" height="40" style="fill:white;stroke:black;stroke-width:1" /><text x="470" y="1230" font-size="10" style="fill:blue">agencia</text><path d="M440 1090 C460 1090 440 1240 460 1240" style="fill:transparent;stroke:black" /><rect x="526" y="1220" width="137" height="40" style="fill:green;stroke:black;stroke-width:1" /><text x="536" y="1230" font-size="8" style="fill:white"> Carsali</text><rect x="460" y="1270" width="200" height="40" style="fill:white;stroke:black;stroke-width:1" /><text x="470" y="1280" font-size="10" style="fill:blue">descripcion</text><path d="M440 1090 C460 1090 440 1290 460 1290" style="fill:transparent;stroke:black" /><rect x="526" y="1270" width="137" height="40" style="fill:green;stroke:black;stroke-width:1" /><text x="536" y="1280" font-size="8" style="fill:white"> Paseo por el pueblo de Kartong, pueblo costero en el suroeste de Gambia en la
            frontera con Senegal.</text><rect x="460" y="1320" width="200" height="40" style="fill:white;stroke:black;stroke-width:1" /><text x="470" y="1330" font-size="10" style="fill:blue">personas_adecuadas</text><path d="M440 1090 C460 1090 440 1340 460 1340" style="fill:transparent;stroke:black" /><rect x="526" y="1320" width="137" height="40" style="fill:green;stroke:black;stroke-width:1" /><text x="536" y="1330" font-size="8" style="fill:white"> Cualquiera</text><rect x="460" y="1370" width="200" height="40" style="fill:white;stroke:black;stroke-width:1" /><text x="470" y="1380" font-size="10" style="fill:blue">inicio_ruta</text><path d="M440 1090 C460 1090 440 1390 460 1390" style="fill:transparent;stroke:black" /><rect x="680" y="1370" width="200" height="40" style="fill:white;stroke:black;stroke-width:1" /><text x="690" y="1380" font-size="10" style="fill:blue">campo</text><path d="M660 1390 C680 1390 660 1390 680 1390" style="fill:transparent;stroke:black" /><text x="690" y="1390" font-size="8" style="fill:black">nombre: Lugar de inicio</text><rect x="746" y="1370" width="137" height="40" style="fill:green;stroke:black;stroke-width:1" /><text x="756" y="1380" font-size="8" style="fill:white">Restaurante Doudou's</text><rect x="680" y="1420" width="200" height="40" style="fill:white;stroke:black;stroke-width:1" /><text x="690" y="1430" font-size="10" style="fill:blue">campo</text><path d="M660 1390 C680 1390 660 1440 680 1440" style="fill:transparent;stroke:black" /><text x="690" y="1440" font-size="8" style="fill:black">nombre: Dirección de incio</text><rect x="746" y="1420" width="137" height="40" style="fill:green;stroke:black;stroke-width:1" /><text x="756" y="1430" font-size="8" style="fill:white">Hacia la playa</text><rect x="680" y="1470" width="200" height="40" style="fill:white;stroke:black;stroke-width:1" /><text x="690" y="1480" font-size="10" style="fill:blue">campo</text><path d="M660 1390 C680 1390 660 1490 680 1490" style="fill:transparent;stroke:black" /><text x="690" y="1490" font-size="8" style="fill:black">nombre: Coordenadas inicio</text><rect x="746" y="1470" width="137" height="40" style="fill:green;stroke:black;stroke-width:1" /><text x="756" y="1480" font-size="8" style="fill:white">13.073542603866942, -16.74340648815768 38m</text><rect x="460" y="1570" width="200" height="40" style="fill:white;stroke:black;stroke-width:1" /><text x="470" y="1580" font-size="10" style="fill:blue">referencias</text><path d="M440 1090 C460 1090 440 1590 460 1590" style="fill:transparent;stroke:black" /><rect x="680" y="1570" width="200" height="40" style="fill:white;stroke:black;stroke-width:1" /><text x="690" y="1580" font-size="10" style="fill:blue">referencia</text><path d="M660 1590 C680 1590 660 1590 680 1590" style="fill:transparent;stroke:black" /><rect x="746" y="1570" width="137" height="40" style="fill:green;stroke:black;stroke-width:1" /><text x="756" y="1580" font-size="8" style="fill:white">
                https://es.wikiloc.com/rutas-senderismo/tanji-river-paddle-facil-tujering-west-coast-gambia-145371314
                </text><rect x="680" y="1620" width="200" height="40" style="fill:white;stroke:black;stroke-width:1" /><text x="690" y="1630" font-size="10" style="fill:blue">referencia</text><path d="M660 1590 C680 1590 660 1640 680 1640" style="fill:transparent;stroke:black" /><rect x="746" y="1620" width="137" height="40" style="fill:green;stroke:black;stroke-width:1" /><text x="756" y="1630" font-size="8" style="fill:white"> https://en.wikipedia.org/wiki/Kartung </text><rect x="680" y="1670" width="200" height="40" style="fill:white;stroke:black;stroke-width:1" /><text x="690" y="1680" font-size="10" style="fill:blue">referencia</text><path d="M660 1590 C680 1590 660 1690 680 1690" style="fill:transparent;stroke:black" /><rect x="746" y="1670" width="137" height="40" style="fill:green;stroke:black;stroke-width:1" /><text x="756" y="1680" font-size="8" style="fill:white">
                https://www.conbotasymochila.com/viaje-a-gambia-ii-kartong-y-frontera-con-senegal/ </text><rect x="460" y="1770" width="200" height="40" style="fill:white;stroke:black;stroke-width:1" /><text x="470" y="1780" font-size="10" style="fill:blue">recomendacion</text><path d="M440 1090 C460 1090 440 1790 460 1790" style="fill:transparent;stroke:black" /><rect x="526" y="1770" width="137" height="40" style="fill:green;stroke:black;stroke-width:1" /><text x="536" y="1780" font-size="8" style="fill:white">8/10</text><rect x="460" y="1820" width="200" height="40" style="fill:white;stroke:black;stroke-width:1" /><text x="470" y="1830" font-size="10" style="fill:blue">hitos</text><path d="M440 1090 C460 1090 440 1840 460 1840" style="fill:transparent;stroke:black" /><rect x="680" y="1820" width="200" height="40" style="fill:white;stroke:black;stroke-width:1" /><text x="690" y="1830" font-size="10" style="fill:blue">hito</text><path d="M660 1840 C680 1840 660 1840 680 1840" style="fill:transparent;stroke:black" /><rect x="900" y="1820" width="200" height="40" style="fill:white;stroke:black;stroke-width:1" /><text x="910" y="1830" font-size="10" style="fill:blue">campo</text><path d="M880 1840 C900 1840 880 1840 900 1840" style="fill:transparent;stroke:black" /><text x="910" y="1840" font-size="8" style="fill:black">nombre: Nombre del hito</text><rect x="966" y="1820" width="137" height="40" style="fill:green;stroke:black;stroke-width:1" /><text x="976" y="1830" font-size="8" style="fill:white">Árbol pie de nius</text><rect x="900" y="1870" width="200" height="40" style="fill:white;stroke:black;stroke-width:1" /><text x="910" y="1880" font-size="10" style="fill:blue">campo</text><path d="M880 1840 C900 1840 880 1890 900 1890" style="fill:transparent;stroke:black" /><text x="910" y="1890" font-size="8" style="fill:black">nombre: Coordenadas del hito</text><rect x="966" y="1870" width="137" height="40" style="fill:green;stroke:black;stroke-width:1" /><text x="976" y="1880" font-size="8" style="fill:white">13°04'25.8"N 16°44'48.2"W 33m</text><rect x="900" y="1920" width="200" height="40" style="fill:white;stroke:black;stroke-width:1" /><text x="910" y="1930" font-size="10" style="fill:blue">galeria</text><path d="M880 1840 C900 1840 880 1940 900 1940" style="fill:transparent;stroke:black" /><rect x="1120" y="1920" width="200" height="40" style="fill:white;stroke:black;stroke-width:1" /><text x="1130" y="1930" font-size="10" style="fill:blue">foto</text><path d="M1100 1940 C1120 1940 1100 1940 1120 1940" style="fill:transparent;stroke:black" /><rect x="1186" y="1920" width="137" height="40" style="fill:green;stroke:black;stroke-width:1" /><text x="1196" y="1930" font-size="8" style="fill:white">multimedia/arbol_nius/arbol_nius_1.jpg</text><rect x="1120" y="1970" width="200" height="40" style="fill:white;stroke:black;stroke-width:1" /><text x="1130" y="1980" font-size="10" style="fill:blue">foto</text><path d="M1100 1940 C1120 1940 1100 1990 1120 1990" style="fill:transparent;stroke:black" /><rect x="1186" y="1970" width="137" height="40" style="fill:green;stroke:black;stroke-width:1" /><text x="1196" y="1980" font-size="8" style="fill:white">multimedia/arbol_nius/arbol_nius_2.jpg</text><rect x="240" y="2220" width="200" height="40" style="fill:white;stroke:black;stroke-width:1" /><text x="250" y="2230" font-size="10" style="fill:blue">ruta</text><path d="M220 40 C240 40 220 2240 240 2240" style="fill:transparent;stroke:black" /><text x="250" y="2240" font-size="8" style="fill:black">nombre: JJB a Kumbanyerr East</text><rect x="460" y="2220" width="200" height="40" style="fill:white;stroke:black;stroke-width:1" /><text x="470" y="2230" font-size="10" style="fill:blue">tipo</text><path d="M440 2240 C460 2240 440 2240 460 2240" style="fill:transparent;stroke:black" /><rect x="526" y="2220" width="137" height="40" style="fill:green;stroke:black;stroke-width:1" /><text x="536" y="2230" font-size="8" style="fill:white">Senderismo y paisajistica</text><rect x="460" y="2270" width="200" height="40" style="fill:white;stroke:black;stroke-width:1" /><text x="470" y="2280" font-size="10" style="fill:blue">medio_transporte</text><path d="M440 2240 C460 2240 440 2290 460 2290" style="fill:transparent;stroke:black" /><rect x="526" y="2270" width="137" height="40" style="fill:green;stroke:black;stroke-width:1" /><text x="536" y="2280" font-size="8" style="fill:white">A pie</text><rect x="460" y="2320" width="200" height="40" style="fill:white;stroke:black;stroke-width:1" /><text x="470" y="2330" font-size="10" style="fill:blue">duracion</text><path d="M440 2240 C460 2240 440 2340 460 2340" style="fill:transparent;stroke:black" /><rect x="526" y="2320" width="137" height="40" style="fill:green;stroke:black;stroke-width:1" /><text x="536" y="2330" font-size="8" style="fill:white">5 horas</text><rect x="460" y="2370" width="200" height="40" style="fill:white;stroke:black;stroke-width:1" /><text x="470" y="2380" font-size="10" style="fill:blue">agencia</text><path d="M440 2240 C460 2240 440 2390 460 2390" style="fill:transparent;stroke:black" /><rect x="526" y="2370" width="137" height="40" style="fill:green;stroke:black;stroke-width:1" /><text x="536" y="2380" font-size="8" style="fill:white"> Gernot Henn</text><rect x="460" y="2420" width="200" height="40" style="fill:white;stroke:black;stroke-width:1" /><text x="470" y="2430" font-size="10" style="fill:blue">descripcion</text><path d="M440 2240 C460 2240 440 2440 460 2440" style="fill:transparent;stroke:black" /><rect x="526" y="2420" width="137" height="40" style="fill:green;stroke:black;stroke-width:1" /><text x="536" y="2430" font-size="8" style="fill:white"> Desde Janjanbureh en la isla Mc Carthy en dirección este hasta Kumbanyerr
            (final de la isla). Regreso por el mismo camino. Total 13 km.</text><rect x="460" y="2470" width="200" height="40" style="fill:white;stroke:black;stroke-width:1" /><text x="470" y="2480" font-size="10" style="fill:blue">personas_adecuadas</text><path d="M440 2240 C460 2240 440 2490 460 2490" style="fill:transparent;stroke:black" /><rect x="526" y="2470" width="137" height="40" style="fill:green;stroke:black;stroke-width:1" /><text x="536" y="2480" font-size="8" style="fill:white"> Personas en buena forma física</text><rect x="460" y="2520" width="200" height="40" style="fill:white;stroke:black;stroke-width:1" /><text x="470" y="2530" font-size="10" style="fill:blue">inicio_ruta</text><path d="M440 2240 C460 2240 440 2540 460 2540" style="fill:transparent;stroke:black" /><rect x="680" y="2520" width="200" height="40" style="fill:white;stroke:black;stroke-width:1" /><text x="690" y="2530" font-size="10" style="fill:blue">campo</text><path d="M660 2540 C680 2540 660 2540 680 2540" style="fill:transparent;stroke:black" /><text x="690" y="2540" font-size="8" style="fill:black">nombre: Lugar de inicio</text><rect x="746" y="2520" width="137" height="40" style="fill:green;stroke:black;stroke-width:1" /><text x="756" y="2530" font-size="8" style="fill:white">Janjanbureh</text><rect x="680" y="2570" width="200" height="40" style="fill:white;stroke:black;stroke-width:1" /><text x="690" y="2580" font-size="10" style="fill:blue">campo</text><path d="M660 2540 C680 2540 660 2590 680 2590" style="fill:transparent;stroke:black" /><text x="690" y="2590" font-size="8" style="fill:black">nombre: Dirección de incio</text><rect x="746" y="2570" width="137" height="40" style="fill:green;stroke:black;stroke-width:1" /><text x="756" y="2580" font-size="8" style="fill:white">Haciael este</text><rect x="680" y="2620" width="200" height="40" style="fill:white;stroke:black;stroke-width:1" /><text x="690" y="2630" font-size="10" style="fill:blue">campo</text><path d="M660 2540 C680 2540 660 2640 680 2640" style="fill:transparent;stroke:black" /><text x="690" y="2640" font-size="8" style="fill:black">nombre: Coordenadas inicio</text><rect x="746" y="2620" width="137" height="40" style="fill:green;stroke:black;stroke-width:1" /><text x="756" y="2630" font-size="8" style="fill:white">13.542491, -14.761894, 7m</text><rect x="460" y="2720" width="200" height="40" style="fill:white;stroke:black;stroke-width:1" /><text x="470" y="2730" font-size="10" style="fill:blue">referencias</text><path d="M440 2240 C460 2240 440 2740 460 2740" style="fill:transparent;stroke:black" /><rect x="680" y="2720" width="200" height="40" style="fill:white;stroke:black;stroke-width:1" /><text x="690" y="2730" font-size="10" style="fill:blue">referencia</text><path d="M660 2740 C680 2740 660 2740 680 2740" style="fill:transparent;stroke:black" /><rect x="746" y="2720" width="137" height="40" style="fill:green;stroke:black;stroke-width:1" /><text x="756" y="2730" font-size="8" style="fill:white">
                https://www.outdooractive.com/en/route/hiking-route/gambia/jjb-to-kumbanyerr-east-on-island/118835332/#dmdtab=oax-tab3
                </text><rect x="680" y="2770" width="200" height="40" style="fill:white;stroke:black;stroke-width:1" /><text x="690" y="2780" font-size="10" style="fill:blue">referencia</text><path d="M660 2740 C680 2740 660 2790 680 2790" style="fill:transparent;stroke:black" /><rect x="746" y="2770" width="137" height="40" style="fill:green;stroke:black;stroke-width:1" /><text x="756" y="2780" font-size="8" style="fill:white"> https://en.wikipedia.org/wiki/Janjanbureh </text><rect x="680" y="2820" width="200" height="40" style="fill:white;stroke:black;stroke-width:1" /><text x="690" y="2830" font-size="10" style="fill:blue">referencia</text><path d="M660 2740 C680 2740 660 2840 680 2840" style="fill:transparent;stroke:black" /><rect x="746" y="2820" width="137" height="40" style="fill:green;stroke:black;stroke-width:1" /><text x="756" y="2830" font-size="8" style="fill:white">
                https://gernothenn.wixsite.com/gambia/post/baobab-hiking-trail-progress-report-03</text><rect x="460" y="2920" width="200" height="40" style="fill:white;stroke:black;stroke-width:1" /><text x="470" y="2930" font-size="10" style="fill:blue">recomendacion</text><path d="M440 2240 C460 2240 440 2940 460 2940" style="fill:transparent;stroke:black" /><rect x="526" y="2920" width="137" height="40" style="fill:green;stroke:black;stroke-width:1" /><text x="536" y="2930" font-size="8" style="fill:white">6/10</text><rect x="460" y="2970" width="200" height="40" style="fill:white;stroke:black;stroke-width:1" /><text x="470" y="2980" font-size="10" style="fill:blue">hitos</text><path d="M440 2240 C460 2240 440 2990 460 2990" style="fill:transparent;stroke:black" /><rect x="680" y="2970" width="200" height="40" style="fill:white;stroke:black;stroke-width:1" /><text x="690" y="2980" font-size="10" style="fill:blue">hito</text><path d="M660 2990 C680 2990 660 2990 680 2990" style="fill:transparent;stroke:black" /><rect x="900" y="2970" width="200" height="40" style="fill:white;stroke:black;stroke-width:1" /><text x="910" y="2980" font-size="10" style="fill:blue">campo</text><path d="M880 2990 C900 2990 880 2990 900 2990" style="fill:transparent;stroke:black" /><text x="910" y="2990" font-size="8" style="fill:black">nombre: Nombre del hito</text><rect x="966" y="2970" width="137" height="40" style="fill:green;stroke:black;stroke-width:1" /><text x="976" y="2980" font-size="8" style="fill:white">Kunkilling Forest Park</text><rect x="900" y="3020" width="200" height="40" style="fill:white;stroke:black;stroke-width:1" /><text x="910" y="3030" font-size="10" style="fill:blue">campo</text><path d="M880 2990 C900 2990 880 3040 900 3040" style="fill:transparent;stroke:black" /><text x="910" y="3040" font-size="8" style="fill:black">nombre: Descripcion del hito</text><rect x="966" y="3020" width="137" height="40" style="fill:green;stroke:black;stroke-width:1" /><text x="976" y="3030" font-size="8" style="fill:white">Parque forestal, establecido el 1 de enero de
                    1954. Abarca un total de 143 hectáreas.</text><rect x="900" y="3070" width="200" height="40" style="fill:white;stroke:black;stroke-width:1" /><text x="910" y="3080" font-size="10" style="fill:blue">galeria</text><path d="M880 2990 C900 2990 880 3090 900 3090" style="fill:transparent;stroke:black" /><rect x="1120" y="3070" width="200" height="40" style="fill:white;stroke:black;stroke-width:1" /><text x="1130" y="3080" font-size="10" style="fill:blue">foto</text><path d="M1100 3090 C1120 3090 1100 3090 1120 3090" style="fill:transparent;stroke:black" /><rect x="1186" y="3070" width="137" height="40" style="fill:green;stroke:black;stroke-width:1" /><text x="1196" y="3080" font-size="8" style="fill:white">multimedia/kunkilling_park/kunkilling_park_1.jpg</text><rect x="1120" y="3120" width="200" height="40" style="fill:white;stroke:black;stroke-width:1" /><text x="1130" y="3130" font-size="10" style="fill:blue">foto</text><path d="M1100 3090 C1120 3090 1100 3140 1120 3140" style="fill:transparent;stroke:black" /><rect x="1186" y="3120" width="137" height="40" style="fill:green;stroke:black;stroke-width:1" /><text x="1196" y="3130" font-size="8" style="fill:white">multimedia/kunkilling_park/kunkilling_park_2.jpg</text></svg>