<?xml version="1.0" encoding="utf-8"?><svg width="auto" height="3720" style="overflow:visible " version="1.1" xmlns="http://www.w3.org/2000/svg"><rect x="20" y="20" width="200" height="40" style="fill:white;stroke:black;stroke-width:1" /><text x="30" y="30" font-size="10" style="fill:blue">xs:schema</text><text x="30" y="40" font-size="8" style="fill:black">xmlns:xs: http://www.w3.org/2001/XMLSchema</text><text x="30" y="50" font-size="8" style="fill:black">targetNamespace: http://www.uniovi.es</text><text x="30" y="60" font-size="8" style="fill:black">xmlns: http://www.uniovi.es</text><text x="30" y="70" font-size="8" style="fill:black">elementFormDefault: qualified</text><rect x="240" y="20" width="200" height="40" style="fill:white;stroke:black;stroke-width:1" /><text x="250" y="30" font-size="10" style="fill:blue">xs:element</text><path d="M220 40 C240 40 220 40 240 40" style="fill:transparent;stroke:black" /><text x="250" y="40" font-size="8" style="fill:black">name: rutas</text><rect x="460" y="20" width="200" height="40" style="fill:white;stroke:black;stroke-width:1" /><text x="470" y="30" font-size="10" style="fill:blue">xs:complexType</text><path d="M440 40 C460 40 440 40 460 40" style="fill:transparent;stroke:black" /><rect x="680" y="20" width="200" height="40" style="fill:white;stroke:black;stroke-width:1" /><text x="690" y="30" font-size="10" style="fill:blue">xs:sequence</text><path d="M660 40 C680 40 660 40 680 40" style="fill:transparent;stroke:black" /><rect x="900" y="20" width="200" height="40" style="fill:white;stroke:black;stroke-width:1" /><text x="910" y="30" font-size="10" style="fill:blue">xs:element</text><path d="M880 40 C900 40 880 40 900 40" style="fill:transparent;stroke:black" /><text x="910" y="40" font-size="8" style="fill:black">minOccurs: 3</text><text x="910" y="50" font-size="8" style="fill:black">maxOccurs: unbounded</text><text x="910" y="60" font-size="8" style="fill:black">ref: ruta</text><rect x="240" y="220" width="200" height="40" style="fill:white;stroke:black;stroke-width:1" /><text x="250" y="230" font-size="10" style="fill:blue">xs:element</text><path d="M220 40 C240 40 220 240 240 240" style="fill:transparent;stroke:black" /><text x="250" y="240" font-size="8" style="fill:black">name: ruta</text><rect x="460" y="220" width="200" height="40" style="fill:white;stroke:black;stroke-width:1" /><text x="470" y="230" font-size="10" style="fill:blue">xs:complexType</text><path d="M440 240 C460 240 440 240 460 240" style="fill:transparent;stroke:black" /><rect x="680" y="220" width="200" height="40" style="fill:white;stroke:black;stroke-width:1" /><text x="690" y="230" font-size="10" style="fill:blue">xs:sequence</text><path d="M660 240 C680 240 660 240 680 240" style="fill:transparent;stroke:black" /><rect x="900" y="220" width="200" height="40" style="fill:white;stroke:black;stroke-width:1" /><text x="910" y="230" font-size="10" style="fill:blue">xs:element</text><path d="M880 240 C900 240 880 240 900 240" style="fill:transparent;stroke:black" /><text x="910" y="240" font-size="8" style="fill:black">ref: tipo</text><text x="910" y="250" font-size="8" style="fill:black">minOccurs: 1</text><text x="910" y="260" font-size="8" style="fill:black">maxOccurs: 1</text><rect x="900" y="270" width="200" height="40" style="fill:white;stroke:black;stroke-width:1" /><text x="910" y="280" font-size="10" style="fill:blue">xs:element</text><path d="M880 240 C900 240 880 290 900 290" style="fill:transparent;stroke:black" /><text x="910" y="290" font-size="8" style="fill:black">ref: medio_transporte</text><text x="910" y="300" font-size="8" style="fill:black">minOccurs: 1</text><text x="910" y="310" font-size="8" style="fill:black">maxOccurs: 1</text><rect x="900" y="320" width="200" height="40" style="fill:white;stroke:black;stroke-width:1" /><text x="910" y="330" font-size="10" style="fill:blue">xs:element</text><path d="M880 240 C900 240 880 340 900 340" style="fill:transparent;stroke:black" /><text x="910" y="340" font-size="8" style="fill:black">ref: duracion</text><text x="910" y="350" font-size="8" style="fill:black">minOccurs: 1</text><text x="910" y="360" font-size="8" style="fill:black">maxOccurs: 1</text><rect x="900" y="370" width="200" height="40" style="fill:white;stroke:black;stroke-width:1" /><text x="910" y="380" font-size="10" style="fill:blue">xs:element</text><path d="M880 240 C900 240 880 390 900 390" style="fill:transparent;stroke:black" /><text x="910" y="390" font-size="8" style="fill:black">ref: agencia</text><text x="910" y="400" font-size="8" style="fill:black">minOccurs: 1</text><text x="910" y="410" font-size="8" style="fill:black">maxOccurs: 1</text><rect x="900" y="420" width="200" height="40" style="fill:white;stroke:black;stroke-width:1" /><text x="910" y="430" font-size="10" style="fill:blue">xs:element</text><path d="M880 240 C900 240 880 440 900 440" style="fill:transparent;stroke:black" /><text x="910" y="440" font-size="8" style="fill:black">ref: descripcion</text><text x="910" y="450" font-size="8" style="fill:black">minOccurs: 1</text><text x="910" y="460" font-size="8" style="fill:black">maxOccurs: 1</text><rect x="900" y="470" width="200" height="40" style="fill:white;stroke:black;stroke-width:1" /><text x="910" y="480" font-size="10" style="fill:blue">xs:element</text><path d="M880 240 C900 240 880 490 900 490" style="fill:transparent;stroke:black" /><text x="910" y="490" font-size="8" style="fill:black">ref: personas_adecuadas</text><text x="910" y="500" font-size="8" style="fill:black">minOccurs: 1</text><text x="910" y="510" font-size="8" style="fill:black">maxOccurs: 1</text><rect x="900" y="520" width="200" height="40" style="fill:white;stroke:black;stroke-width:1" /><text x="910" y="530" font-size="10" style="fill:blue">xs:element</text><path d="M880 240 C900 240 880 540 900 540" style="fill:transparent;stroke:black" /><text x="910" y="540" font-size="8" style="fill:black">ref: inicio_ruta</text><text x="910" y="550" font-size="8" style="fill:black">minOccurs: 1</text><text x="910" y="560" font-size="8" style="fill:black">maxOccurs: 1</text><rect x="900" y="570" width="200" height="40" style="fill:white;stroke:black;stroke-width:1" /><text x="910" y="580" font-size="10" style="fill:blue">xs:element</text><path d="M880 240 C900 240 880 590 900 590" style="fill:transparent;stroke:black" /><text x="910" y="590" font-size="8" style="fill:black">ref: referencias</text><text x="910" y="600" font-size="8" style="fill:black">minOccurs: 1</text><text x="910" y="610" font-size="8" style="fill:black">maxOccurs: 1</text><rect x="900" y="620" width="200" height="40" style="fill:white;stroke:black;stroke-width:1" /><text x="910" y="630" font-size="10" style="fill:blue">xs:element</text><path d="M880 240 C900 240 880 640 900 640" style="fill:transparent;stroke:black" /><text x="910" y="640" font-size="8" style="fill:black">ref: recomendacion</text><text x="910" y="650" font-size="8" style="fill:black">minOccurs: 1</text><text x="910" y="660" font-size="8" style="fill:black">maxOccurs: 1</text><rect x="900" y="670" width="200" height="40" style="fill:white;stroke:black;stroke-width:1" /><text x="910" y="680" font-size="10" style="fill:blue">xs:element</text><path d="M880 240 C900 240 880 690 900 690" style="fill:transparent;stroke:black" /><text x="910" y="690" font-size="8" style="fill:black">ref: hitos</text><text x="910" y="700" font-size="8" style="fill:black">minOccurs: 1</text><text x="910" y="710" font-size="8" style="fill:black">maxOccurs: 1</text><rect x="680" y="770" width="200" height="40" style="fill:white;stroke:black;stroke-width:1" /><text x="690" y="780" font-size="10" style="fill:blue">xs:attribute</text><path d="M660 240 C680 240 660 790 680 790" style="fill:transparent;stroke:black" /><text x="690" y="790" font-size="8" style="fill:black">name: nombre</text><text x="690" y="800" font-size="8" style="fill:black">type: xs:string</text><text x="690" y="810" font-size="8" style="fill:black">use: required</text><rect x="680" y="820" width="200" height="40" style="fill:white;stroke:black;stroke-width:1" /><text x="690" y="830" font-size="10" style="fill:blue">xs:attribute</text><path d="M660 240 C680 240 660 840 680 840" style="fill:transparent;stroke:black" /><text x="690" y="840" font-size="8" style="fill:black">name: fecha_inicio</text><text x="690" y="850" font-size="8" style="fill:black">type: xs:date</text><text x="690" y="860" font-size="8" style="fill:black">use: optional</text><rect x="680" y="870" width="200" height="40" style="fill:white;stroke:black;stroke-width:1" /><text x="690" y="880" font-size="10" style="fill:blue">xs:attribute</text><path d="M660 240 C680 240 660 890 680 890" style="fill:transparent;stroke:black" /><text x="690" y="890" font-size="8" style="fill:black">name: fecha_final</text><text x="690" y="900" font-size="8" style="fill:black">type: xs:date</text><text x="690" y="910" font-size="8" style="fill:black">use: optional</text><rect x="240" y="1020" width="200" height="40" style="fill:white;stroke:black;stroke-width:1" /><text x="250" y="1030" font-size="10" style="fill:blue">xs:element</text><path d="M220 40 C240 40 220 1040 240 1040" style="fill:transparent;stroke:black" /><text x="250" y="1040" font-size="8" style="fill:black">name: tipo</text><text x="250" y="1050" font-size="8" style="fill:black">type: xs:string</text><rect x="240" y="1070" width="200" height="40" style="fill:white;stroke:black;stroke-width:1" /><text x="250" y="1080" font-size="10" style="fill:blue">xs:element</text><path d="M220 40 C240 40 220 1090 240 1090" style="fill:transparent;stroke:black" /><text x="250" y="1090" font-size="8" style="fill:black">name: medio_transporte</text><text x="250" y="1100" font-size="8" style="fill:black">type: xs:string</text><rect x="240" y="1120" width="200" height="40" style="fill:white;stroke:black;stroke-width:1" /><text x="250" y="1130" font-size="10" style="fill:blue">xs:element</text><path d="M220 40 C240 40 220 1140 240 1140" style="fill:transparent;stroke:black" /><text x="250" y="1140" font-size="8" style="fill:black">name: duracion</text><text x="250" y="1150" font-size="8" style="fill:black">type: xs:duration</text><rect x="240" y="1170" width="200" height="40" style="fill:white;stroke:black;stroke-width:1" /><text x="250" y="1180" font-size="10" style="fill:blue">xs:element</text><path d="M220 40 C240 40 220 1190 240 1190" style="fill:transparent;stroke:black" /><text x="250" y="1190" font-size="8" style="fill:black">name: agencia</text><text x="250" y="1200" font-size="8" style="fill:black">type: xs:string</text><rect x="240" y="1220" width="200" height="40" style="fill:white;stroke:black;stroke-width:1" /><text x="250" y="1230" font-size="10" style="fill:blue">xs:element</text><path d="M220 40 C240 40 220 1240 240 1240" style="fill:transparent;stroke:black" /><text x="250" y="1240" font-size="8" style="fill:black">name: descripcion</text><text x="250" y="1250" font-size="8" style="fill:black">type: xs:string</text><rect x="240" y="1270" width="200" height="40" style="fill:white;stroke:black;stroke-width:1" /><text x="250" y="1280" font-size="10" style="fill:blue">xs:element</text><path d="M220 40 C240 40 220 1290 240 1290" style="fill:transparent;stroke:black" /><text x="250" y="1290" font-size="8" style="fill:black">name: personas_adecuadas</text><text x="250" y="1300" font-size="8" style="fill:black">type: xs:string</text><rect x="240" y="1320" width="200" height="40" style="fill:white;stroke:black;stroke-width:1" /><text x="250" y="1330" font-size="10" style="fill:blue">xs:element</text><path d="M220 40 C240 40 220 1340 240 1340" style="fill:transparent;stroke:black" /><text x="250" y="1340" font-size="8" style="fill:black">name: inicio_ruta</text><rect x="460" y="1320" width="200" height="40" style="fill:white;stroke:black;stroke-width:1" /><text x="470" y="1330" font-size="10" style="fill:blue">xs:complexType</text><path d="M440 1340 C460 1340 440 1340 460 1340" style="fill:transparent;stroke:black" /><rect x="680" y="1320" width="200" height="40" style="fill:white;stroke:black;stroke-width:1" /><text x="690" y="1330" font-size="10" style="fill:blue">xs:sequence</text><path d="M660 1340 C680 1340 660 1340 680 1340" style="fill:transparent;stroke:black" /><rect x="900" y="1320" width="200" height="40" style="fill:white;stroke:black;stroke-width:1" /><text x="910" y="1330" font-size="10" style="fill:blue">xs:element</text><path d="M880 1340 C900 1340 880 1340 900 1340" style="fill:transparent;stroke:black" /><text x="910" y="1340" font-size="8" style="fill:black">ref: coordenadas</text><text x="910" y="1350" font-size="8" style="fill:black">minOccurs: 1</text><text x="910" y="1360" font-size="8" style="fill:black">maxOccurs: 1</text><rect x="680" y="1420" width="200" height="40" style="fill:white;stroke:black;stroke-width:1" /><text x="690" y="1430" font-size="10" style="fill:blue">xs:attribute</text><path d="M660 1340 C680 1340 660 1440 680 1440" style="fill:transparent;stroke:black" /><text x="690" y="1440" font-size="8" style="fill:black">name: lugar</text><text x="690" y="1450" font-size="8" style="fill:black">type: xs:string</text><text x="690" y="1460" font-size="8" style="fill:black">use: required</text><rect x="680" y="1470" width="200" height="40" style="fill:white;stroke:black;stroke-width:1" /><text x="690" y="1480" font-size="10" style="fill:blue">xs:attribute</text><path d="M660 1340 C680 1340 660 1490 680 1490" style="fill:transparent;stroke:black" /><text x="690" y="1490" font-size="8" style="fill:black">name: direccion</text><text x="690" y="1500" font-size="8" style="fill:black">type: xs:string</text><text x="690" y="1510" font-size="8" style="fill:black">use: required</text><rect x="240" y="1620" width="200" height="40" style="fill:white;stroke:black;stroke-width:1" /><text x="250" y="1630" font-size="10" style="fill:blue">xs:element</text><path d="M220 40 C240 40 220 1640 240 1640" style="fill:transparent;stroke:black" /><text x="250" y="1640" font-size="8" style="fill:black">name: referencias</text><rect x="460" y="1620" width="200" height="40" style="fill:white;stroke:black;stroke-width:1" /><text x="470" y="1630" font-size="10" style="fill:blue">xs:complexType</text><path d="M440 1640 C460 1640 440 1640 460 1640" style="fill:transparent;stroke:black" /><rect x="680" y="1620" width="200" height="40" style="fill:white;stroke:black;stroke-width:1" /><text x="690" y="1630" font-size="10" style="fill:blue">xs:sequence</text><path d="M660 1640 C680 1640 660 1640 680 1640" style="fill:transparent;stroke:black" /><rect x="900" y="1620" width="200" height="40" style="fill:white;stroke:black;stroke-width:1" /><text x="910" y="1630" font-size="10" style="fill:blue">xs:element</text><path d="M880 1640 C900 1640 880 1640 900 1640" style="fill:transparent;stroke:black" /><text x="910" y="1640" font-size="8" style="fill:black">minOccurs: 3</text><text x="910" y="1650" font-size="8" style="fill:black">maxOccurs: unbounded</text><text x="910" y="1660" font-size="8" style="fill:black">ref: referencia</text><rect x="240" y="1820" width="200" height="40" style="fill:white;stroke:black;stroke-width:1" /><text x="250" y="1830" font-size="10" style="fill:blue">xs:element</text><path d="M220 40 C240 40 220 1840 240 1840" style="fill:transparent;stroke:black" /><text x="250" y="1840" font-size="8" style="fill:black">name: referencia</text><text x="250" y="1850" font-size="8" style="fill:black">type: xs:string</text><rect x="240" y="1870" width="200" height="40" style="fill:white;stroke:black;stroke-width:1" /><text x="250" y="1880" font-size="10" style="fill:blue">xs:element</text><path d="M220 40 C240 40 220 1890 240 1890" style="fill:transparent;stroke:black" /><text x="250" y="1890" font-size="8" style="fill:black">name: recomendacion</text><text x="250" y="1900" font-size="8" style="fill:black">type: xs:integer</text><rect x="240" y="1920" width="200" height="40" style="fill:white;stroke:black;stroke-width:1" /><text x="250" y="1930" font-size="10" style="fill:blue">xs:element</text><path d="M220 40 C240 40 220 1940 240 1940" style="fill:transparent;stroke:black" /><text x="250" y="1940" font-size="8" style="fill:black">name: hitos</text><rect x="460" y="1920" width="200" height="40" style="fill:white;stroke:black;stroke-width:1" /><text x="470" y="1930" font-size="10" style="fill:blue">xs:complexType</text><path d="M440 1940 C460 1940 440 1940 460 1940" style="fill:transparent;stroke:black" /><rect x="680" y="1920" width="200" height="40" style="fill:white;stroke:black;stroke-width:1" /><text x="690" y="1930" font-size="10" style="fill:blue">xs:sequence</text><path d="M660 1940 C680 1940 660 1940 680 1940" style="fill:transparent;stroke:black" /><rect x="900" y="1920" width="200" height="40" style="fill:white;stroke:black;stroke-width:1" /><text x="910" y="1930" font-size="10" style="fill:blue">xs:element</text><path d="M880 1940 C900 1940 880 1940 900 1940" style="fill:transparent;stroke:black" /><text x="910" y="1940" font-size="8" style="fill:black">minOccurs: 3</text><text x="910" y="1950" font-size="8" style="fill:black">maxOccurs: unbounded</text><text x="910" y="1960" font-size="8" style="fill:black">ref: hito</text><rect x="240" y="2120" width="200" height="40" style="fill:white;stroke:black;stroke-width:1" /><text x="250" y="2130" font-size="10" style="fill:blue">xs:element</text><path d="M220 40 C240 40 220 2140 240 2140" style="fill:transparent;stroke:black" /><text x="250" y="2140" font-size="8" style="fill:black">name: hito</text><rect x="460" y="2120" width="200" height="40" style="fill:white;stroke:black;stroke-width:1" /><text x="470" y="2130" font-size="10" style="fill:blue">xs:complexType</text><path d="M440 2140 C460 2140 440 2140 460 2140" style="fill:transparent;stroke:black" /><rect x="680" y="2120" width="200" height="40" style="fill:white;stroke:black;stroke-width:1" /><text x="690" y="2130" font-size="10" style="fill:blue">xs:sequence</text><path d="M660 2140 C680 2140 660 2140 680 2140" style="fill:transparent;stroke:black" /><rect x="900" y="2120" width="200" height="40" style="fill:white;stroke:black;stroke-width:1" /><text x="910" y="2130" font-size="10" style="fill:blue">xs:element</text><path d="M880 2140 C900 2140 880 2140 900 2140" style="fill:transparent;stroke:black" /><text x="910" y="2140" font-size="8" style="fill:black">ref: descripcion</text><text x="910" y="2150" font-size="8" style="fill:black">minOccurs: 1</text><text x="910" y="2160" font-size="8" style="fill:black">maxOccurs: 1</text><rect x="900" y="2170" width="200" height="40" style="fill:white;stroke:black;stroke-width:1" /><text x="910" y="2180" font-size="10" style="fill:blue">xs:element</text><path d="M880 2140 C900 2140 880 2190 900 2190" style="fill:transparent;stroke:black" /><text x="910" y="2190" font-size="8" style="fill:black">ref: coordenadas</text><text x="910" y="2200" font-size="8" style="fill:black">minOccurs: 1</text><text x="910" y="2210" font-size="8" style="fill:black">maxOccurs: 1</text><rect x="900" y="2220" width="200" height="40" style="fill:white;stroke:black;stroke-width:1" /><text x="910" y="2230" font-size="10" style="fill:blue">xs:element</text><path d="M880 2140 C900 2140 880 2240 900 2240" style="fill:transparent;stroke:black" /><text x="910" y="2240" font-size="8" style="fill:black">ref: distancia</text><text x="910" y="2250" font-size="8" style="fill:black">minOccurs: 1</text><text x="910" y="2260" font-size="8" style="fill:black">maxOccurs: 1</text><rect x="900" y="2270" width="200" height="40" style="fill:white;stroke:black;stroke-width:1" /><text x="910" y="2280" font-size="10" style="fill:blue">xs:element</text><path d="M880 2140 C900 2140 880 2290 900 2290" style="fill:transparent;stroke:black" /><text x="910" y="2290" font-size="8" style="fill:black">ref: galeria_foto</text><text x="910" y="2300" font-size="8" style="fill:black">minOccurs: 1</text><text x="910" y="2310" font-size="8" style="fill:black">maxOccurs: 1</text><rect x="900" y="2320" width="200" height="40" style="fill:white;stroke:black;stroke-width:1" /><text x="910" y="2330" font-size="10" style="fill:blue">xs:element</text><path d="M880 2140 C900 2140 880 2340 900 2340" style="fill:transparent;stroke:black" /><text x="910" y="2340" font-size="8" style="fill:black">ref: galeria_video</text><text x="910" y="2350" font-size="8" style="fill:black">minOccurs: 0</text><text x="910" y="2360" font-size="8" style="fill:black">maxOccurs: 1</text><rect x="680" y="2420" width="200" height="40" style="fill:white;stroke:black;stroke-width:1" /><text x="690" y="2430" font-size="10" style="fill:blue">xs:attribute</text><path d="M660 2140 C680 2140 660 2440 680 2440" style="fill:transparent;stroke:black" /><text x="690" y="2440" font-size="8" style="fill:black">name: nombre</text><text x="690" y="2450" font-size="8" style="fill:black">type: xs:string</text><text x="690" y="2460" font-size="8" style="fill:black">use: required</text><rect x="240" y="2570" width="200" height="40" style="fill:white;stroke:black;stroke-width:1" /><text x="250" y="2580" font-size="10" style="fill:blue">xs:element</text><path d="M220 40 C240 40 220 2590 240 2590" style="fill:transparent;stroke:black" /><text x="250" y="2590" font-size="8" style="fill:black">name: galeria_foto</text><rect x="460" y="2570" width="200" height="40" style="fill:white;stroke:black;stroke-width:1" /><text x="470" y="2580" font-size="10" style="fill:blue">xs:complexType</text><path d="M440 2590 C460 2590 440 2590 460 2590" style="fill:transparent;stroke:black" /><rect x="680" y="2570" width="200" height="40" style="fill:white;stroke:black;stroke-width:1" /><text x="690" y="2580" font-size="10" style="fill:blue">xs:sequence</text><path d="M660 2590 C680 2590 660 2590 680 2590" style="fill:transparent;stroke:black" /><rect x="900" y="2570" width="200" height="40" style="fill:white;stroke:black;stroke-width:1" /><text x="910" y="2580" font-size="10" style="fill:blue">xs:element</text><path d="M880 2590 C900 2590 880 2590 900 2590" style="fill:transparent;stroke:black" /><text x="910" y="2590" font-size="8" style="fill:black">ref: foto</text><text x="910" y="2600" font-size="8" style="fill:black">minOccurs: 1</text><text x="910" y="2610" font-size="8" style="fill:black">maxOccurs: 5</text><rect x="240" y="2770" width="200" height="40" style="fill:white;stroke:black;stroke-width:1" /><text x="250" y="2780" font-size="10" style="fill:blue">xs:element</text><path d="M220 40 C240 40 220 2790 240 2790" style="fill:transparent;stroke:black" /><text x="250" y="2790" font-size="8" style="fill:black">name: galeria_video</text><rect x="460" y="2770" width="200" height="40" style="fill:white;stroke:black;stroke-width:1" /><text x="470" y="2780" font-size="10" style="fill:blue">xs:complexType</text><path d="M440 2790 C460 2790 440 2790 460 2790" style="fill:transparent;stroke:black" /><rect x="680" y="2770" width="200" height="40" style="fill:white;stroke:black;stroke-width:1" /><text x="690" y="2780" font-size="10" style="fill:blue">xs:sequence</text><path d="M660 2790 C680 2790 660 2790 680 2790" style="fill:transparent;stroke:black" /><rect x="900" y="2770" width="200" height="40" style="fill:white;stroke:black;stroke-width:1" /><text x="910" y="2780" font-size="10" style="fill:blue">xs:element</text><path d="M880 2790 C900 2790 880 2790 900 2790" style="fill:transparent;stroke:black" /><text x="910" y="2790" font-size="8" style="fill:black">ref: video</text><text x="910" y="2800" font-size="8" style="fill:black">minOccurs: 1</text><text x="910" y="2810" font-size="8" style="fill:black">maxOccurs: 3</text><rect x="240" y="2970" width="200" height="40" style="fill:white;stroke:black;stroke-width:1" /><text x="250" y="2980" font-size="10" style="fill:blue">xs:element</text><path d="M220 40 C240 40 220 2990 240 2990" style="fill:transparent;stroke:black" /><text x="250" y="2990" font-size="8" style="fill:black">name: foto</text><text x="250" y="3000" font-size="8" style="fill:black">type: xs:anyURI</text><rect x="240" y="3020" width="200" height="40" style="fill:white;stroke:black;stroke-width:1" /><text x="250" y="3030" font-size="10" style="fill:blue">xs:element</text><path d="M220 40 C240 40 220 3040 240 3040" style="fill:transparent;stroke:black" /><text x="250" y="3040" font-size="8" style="fill:black">name: video</text><text x="250" y="3050" font-size="8" style="fill:black">type: xs:string</text><rect x="240" y="3070" width="200" height="40" style="fill:white;stroke:black;stroke-width:1" /><text x="250" y="3080" font-size="10" style="fill:blue">xs:element</text><path d="M220 40 C240 40 220 3090 240 3090" style="fill:transparent;stroke:black" /><text x="250" y="3090" font-size="8" style="fill:black">name: coordenadas</text><rect x="460" y="3070" width="200" height="40" style="fill:white;stroke:black;stroke-width:1" /><text x="470" y="3080" font-size="10" style="fill:blue">xs:complexType</text><path d="M440 3090 C460 3090 440 3090 460 3090" style="fill:transparent;stroke:black" /><rect x="680" y="3070" width="200" height="40" style="fill:white;stroke:black;stroke-width:1" /><text x="690" y="3080" font-size="10" style="fill:blue">xs:simpleContent</text><path d="M660 3090 C680 3090 660 3090 680 3090" style="fill:transparent;stroke:black" /><rect x="900" y="3070" width="200" height="40" style="fill:white;stroke:black;stroke-width:1" /><text x="910" y="3080" font-size="10" style="fill:blue">xs:extension</text><path d="M880 3090 C900 3090 880 3090 900 3090" style="fill:transparent;stroke:black" /><text x="910" y="3090" font-size="8" style="fill:black">base: xs:float</text><rect x="1120" y="3070" width="200" height="40" style="fill:white;stroke:black;stroke-width:1" /><text x="1130" y="3080" font-size="10" style="fill:blue">xs:attribute</text><path d="M1100 3090 C1120 3090 1100 3090 1120 3090" style="fill:transparent;stroke:black" /><text x="1130" y="3090" font-size="8" style="fill:black">name: latitud</text><text x="1130" y="3100" font-size="8" style="fill:black">type: xs:float</text><text x="1130" y="3110" font-size="8" style="fill:black">use: required</text><rect x="1120" y="3120" width="200" height="40" style="fill:white;stroke:black;stroke-width:1" /><text x="1130" y="3130" font-size="10" style="fill:blue">xs:attribute</text><path d="M1100 3090 C1120 3090 1100 3140 1120 3140" style="fill:transparent;stroke:black" /><text x="1130" y="3140" font-size="8" style="fill:black">name: longitug</text><text x="1130" y="3150" font-size="8" style="fill:black">type: xs:float</text><text x="1130" y="3160" font-size="8" style="fill:black">use: required</text><rect x="1120" y="3170" width="200" height="40" style="fill:white;stroke:black;stroke-width:1" /><text x="1130" y="3180" font-size="10" style="fill:blue">xs:attribute</text><path d="M1100 3090 C1120 3090 1100 3190 1120 3190" style="fill:transparent;stroke:black" /><text x="1130" y="3190" font-size="8" style="fill:black">name: alt_measure</text><text x="1130" y="3200" font-size="8" style="fill:black">type: xs:string</text><text x="1130" y="3210" font-size="8" style="fill:black">use: required</text><rect x="240" y="3420" width="200" height="40" style="fill:white;stroke:black;stroke-width:1" /><text x="250" y="3430" font-size="10" style="fill:blue">xs:element</text><path d="M220 40 C240 40 220 3440 240 3440" style="fill:transparent;stroke:black" /><text x="250" y="3440" font-size="8" style="fill:black">name: distancia</text><rect x="460" y="3420" width="200" height="40" style="fill:white;stroke:black;stroke-width:1" /><text x="470" y="3430" font-size="10" style="fill:blue">xs:complexType</text><path d="M440 3440 C460 3440 440 3440 460 3440" style="fill:transparent;stroke:black" /><rect x="680" y="3420" width="200" height="40" style="fill:white;stroke:black;stroke-width:1" /><text x="690" y="3430" font-size="10" style="fill:blue">xs:simpleContent</text><path d="M660 3440 C680 3440 660 3440 680 3440" style="fill:transparent;stroke:black" /><rect x="900" y="3420" width="200" height="40" style="fill:white;stroke:black;stroke-width:1" /><text x="910" y="3430" font-size="10" style="fill:blue">xs:extension</text><path d="M880 3440 C900 3440 880 3440 900 3440" style="fill:transparent;stroke:black" /><text x="910" y="3440" font-size="8" style="fill:black">base: xs:float</text><rect x="1120" y="3420" width="200" height="40" style="fill:white;stroke:black;stroke-width:1" /><text x="1130" y="3430" font-size="10" style="fill:blue">xs:attribute</text><path d="M1100 3440 C1120 3440 1100 3440 1120 3440" style="fill:transparent;stroke:black" /><text x="1130" y="3440" font-size="8" style="fill:black">name: dist_measure</text><text x="1130" y="3450" font-size="8" style="fill:black">type: xs:string</text><text x="1130" y="3460" font-size="8" style="fill:black">use: required</text></svg>